# xmcd CD database file
#
# Track frame offsets:
#	150
#	11851
#	24220
#	42673
#	60245
#	74682
#	88140
#	97106
#	108834
#	121731
#	133475
#	156198
#
# Disc length: 2235 seconds
#
# Revision: 0
# Processed by: cddbd v1.4PL0 Copyright (c) Steve Scherf et al.
# Submitted via: CDex 1.50Beta7
#
DISCID=a508b90c
DTITLE=Arthur Lyman - Yellow Bird
DYEAR=1900
DGENRE=Jazz
TTITLE0=Havah Nagilah
TTITLE1=Yellow Bird
TTITLE2=Ravel's Bolero
TTITLE3=Autumn Leaves
TTITLE4=Arrive Derce Roma
TTITLE5=Sweet And Lovely
TTITLE6=Bamboo Tamboo
TTITLE7=Andalusia
TTITLE8=Adventures In Paradise
TTITLE9=Granada
TTITLE10=September Song
TTITLE11=John Henry
EXTD=
EXTT0=
EXTT1=
EXTT2=
EXTT3=
EXTT4=
EXTT5=
EXTT6=
EXTT7=
EXTT8=
EXTT9=
EXTT10=
EXTT11=
PLAYORDER=
